<svg width="32" height="32" viewBox="0 0 32 32" fill="none" xmlns="http://www.w3.org/2000/svg">
<path d="M24 13.3438C23.7917 13.3438 23.6302 13.2812 23.5156 13.1562C23.401 13.0312 23.3438 12.8646 23.3438 12.6562V11.3438C23.3438 11.1354 23.401 10.9688 23.5156 10.8438C23.6302 10.7188 23.7917 10.6562 24 10.6562C24.2083 10.6562 24.3698 10.7188 24.4844 10.8438C24.599 10.9688 24.6562 11.1354 24.6562 11.3438V12.6562C24.6562 12.8646 24.599 13.0312 24.4844 13.1562C24.3698 13.2812 24.2083 13.3438 24 13.3438ZM24.2812 12H21.875C21.7292 12 21.6042 11.9375 21.5 11.8125C21.3958 11.6875 21.3438 11.5312 21.3438 11.3438C21.3438 11.1354 21.401 10.9688 21.5156 10.8438C21.6302 10.7188 21.7917 10.6562 22 10.6562H24.4062C24.6771 10.6562 24.901 10.5625 25.0781 10.375C25.2552 10.1875 25.3438 9.92708 25.3438 9.59375C25.3438 9.26042 25.25 9 25.0625 8.8125C24.875 8.625 24.6146 8.53125 24.2812 8.53125H23.5938C22.9271 8.53125 22.3594 8.29688 21.8906 7.82812C21.4219 7.35938 21.1875 6.79167 21.1875 6.125C21.1875 5.45833 21.4427 4.9375 21.9531 4.5625C22.4635 4.1875 23.0521 4 23.7188 4H26.125C26.2708 4 26.3958 4.0625 26.5 4.1875C26.6042 4.3125 26.6562 4.46875 26.6562 4.65625C26.6562 4.86458 26.599 5.03125 26.4844 5.15625C26.3698 5.28125 26.2083 5.34375 26 5.34375H23.5938C23.3229 5.34375 23.099 5.4375 22.9219 5.625C22.7448 5.8125 22.6562 6.07292 22.6562 6.40625C22.6562 6.73958 22.75 7 22.9375 7.1875C23.125 7.375 23.3854 7.46875 23.7188 7.46875H24.4062C25.0729 7.46875 25.6406 7.70312 26.1094 8.17188C26.5781 8.64062 26.8125 9.20833 26.8125 9.875C26.8125 10.5417 26.5573 11.0625 26.0469 11.4375C25.5365 11.8125 24.9479 12 24.2812 12ZM24 5.34375C23.7917 5.34375 23.6302 5.28125 23.5156 5.15625C23.401 5.03125 23.3438 4.86458 23.3438 4.65625V3.34375C23.3438 3.13542 23.401 2.96875 23.5156 2.84375C23.6302 2.71875 23.7917 2.65625 24 2.65625C24.2083 2.65625 24.3698 2.71875 24.4844 2.84375C24.599 2.96875 24.6562 3.13542 24.6562 3.34375V4.65625C24.6562 4.86458 24.599 5.03125 24.4844 5.15625C24.3698 5.28125 24.2083 5.34375 24 5.34375ZM24 16C22.8958 16 21.8646 15.7917 20.9062 15.375C19.9271 14.9583 19.0729 14.3854 18.3438 13.6562C17.6146 12.9271 17.0417 12.0729 16.625 11.0938C16.2083 10.1354 16 9.10417 16 8C16 6.89583 16.2083 5.86458 16.625 4.90625C17.0417 3.92708 17.6146 3.07292 18.3438 2.34375C19.0729 1.61458 19.9271 1.04167 20.9062 0.625C21.8646 0.208334 22.8958 0 24 0C25.1042 0 26.1354 0.208334 27.0938 0.625C28.0729 1.04167 28.9271 1.61458 29.6562 2.34375C30.3854 3.07292 30.9583 3.92708 31.375 4.90625C31.7917 5.86458 32 6.89583 32 8C32 9.10417 31.7917 10.1354 31.375 11.0938C30.9583 12.0729 30.3854 12.9271 29.6562 13.6562C28.9271 14.3854 28.0729 14.9583 27.0938 15.375C26.1354 15.7917 25.1042 16 24 16ZM24 1.34375C23.0625 1.34375 22.1875 1.51042 21.375 1.84375C20.5625 2.19792 19.8594 2.67188 19.2656 3.26562C18.6719 3.85938 18.1979 4.5625 17.8438 5.375C17.5104 6.1875 17.3438 7.0625 17.3438 8C17.3438 8.9375 17.5104 9.8125 17.8438 10.625C18.1979 11.4375 18.6719 12.1406 19.2656 12.7344C19.8594 13.3281 20.5625 13.8021 21.375 14.1562C22.1875 14.4896 23.0625 14.6562 24 14.6562C24.9375 14.6562 25.8125 14.4896 26.625 14.1562C27.4375 13.8021 28.1406 13.3281 28.7344 12.7344C29.3281 12.1406 29.8021 11.4375 30.1562 10.625C30.4896 9.8125 30.6562 8.9375 30.6562 8C30.6562 7.0625 30.4896 6.1875 30.1562 5.375C29.8021 4.5625 29.3281 3.85938 28.7344 3.26562C28.1406 2.67188 27.4375 2.19792 26.625 1.84375C25.8125 1.51042 24.9375 1.34375 24 1.34375ZM14.6562 32H14.125C13.1042 31.9583 12.0833 31.8229 11.0625 31.5938C10.0625 31.3438 9.09896 30.9896 8.17188 30.5312C7.24479 30.0729 6.375 29.5208 5.5625 28.875C4.75 28.2292 4.01042 27.4896 3.34375 26.6562C2.80208 25.9896 2.32292 25.2917 1.90625 24.5625C1.48958 23.8125 1.14062 23.0417 0.859375 22.25C0.578125 21.4583 0.364583 20.6458 0.21875 19.8125C0.0729167 19 0 18.1771 0 17.3438C0 16.5104 0.0729167 15.6667 0.21875 14.8125C0.364583 13.9792 0.578125 13.1615 0.859375 12.3594C1.14062 11.5573 1.48958 10.7917 1.90625 10.0625C2.32292 9.3125 2.80208 8.625 3.34375 8C4.01042 7.20833 4.72917 6.48958 5.5 5.84375C6.27083 5.21875 7.09375 4.68229 7.96875 4.23438C8.84375 3.78646 9.75 3.42708 10.6875 3.15625C11.625 2.90625 12.5938 2.73958 13.5938 2.65625C13.8021 2.65625 13.9688 2.71875 14.0938 2.84375C14.2188 2.96875 14.2812 3.13542 14.2812 3.34375C14.2812 3.53125 14.2188 3.6875 14.0938 3.8125C13.9688 3.9375 13.8021 4 13.5938 4C12.6979 4.0625 11.8229 4.21875 10.9688 4.46875C10.0938 4.71875 9.26042 5.04688 8.46875 5.45312C7.67708 5.85938 6.92708 6.34375 6.21875 6.90625C5.51042 7.46875 4.86458 8.10417 4.28125 8.8125C3.34375 10 2.61979 11.3177 2.10938 12.7656C1.59896 14.2135 1.34375 15.7396 1.34375 17.3438C1.34375 18.9271 1.60417 20.4427 2.125 21.8906C2.64583 23.3385 3.40625 24.6667 4.40625 25.875C5.01042 26.6042 5.67708 27.2604 6.40625 27.8438C7.15625 28.4271 7.94792 28.9219 8.78125 29.3281C9.61458 29.7344 10.5 30.0521 11.4375 30.2812C12.3542 30.5104 13.3021 30.6354 14.2812 30.6562H15.0625C16.0417 30.6354 16.9896 30.5104 17.9062 30.2812C18.8229 30.0521 19.7031 29.7344 20.5469 29.3281C21.3906 28.9219 22.1875 28.4271 22.9375 27.8438C23.6667 27.2604 24.3333 26.6042 24.9375 25.875C25.7917 24.8125 26.4844 23.6302 27.0156 22.3281C27.5469 21.026 27.875 19.6771 28 18.2812C28 18.0729 28.0781 17.9062 28.2344 17.7812C28.3906 17.6562 28.5312 17.5938 28.6562 17.5938C28.8646 17.5938 29.0312 17.6719 29.1562 17.8281C29.2812 17.9844 29.3438 18.1354 29.3438 18.2812C29.1979 19.8021 28.8542 21.276 28.3125 22.7031C27.7708 24.1302 27 25.4062 26 26.5312C25.3333 27.3229 24.5938 28.0417 23.7812 28.6875C22.9479 29.3333 22.0677 29.8854 21.1406 30.3438C20.2135 30.8021 19.25 31.1667 18.25 31.4375C17.25 31.6875 16.2292 31.8333 15.1875 31.875C15.0625 31.9375 14.9635 31.974 14.8906 31.9844C14.8177 31.9948 14.7396 32 14.6562 32ZM13.1875 12C12.0625 11.875 10.9948 11.7031 9.98438 11.4844C8.97396 11.2656 8 10.9896 7.0625 10.6562C6.45833 10.4062 5.86458 10.1406 5.28125 9.85938C4.69792 9.57812 4.13542 9.27083 3.59375 8.9375C3.40625 8.875 3.29688 8.75521 3.26562 8.57812C3.23438 8.40104 3.26042 8.20833 3.34375 8C3.40625 7.875 3.54167 7.78646 3.75 7.73438C3.95833 7.68229 4.13542 7.72917 4.28125 7.875C4.73958 8.20833 5.25 8.50521 5.8125 8.76562C6.375 9.02604 6.92708 9.26042 7.46875 9.46875C8.40625 9.73958 9.34375 9.98958 10.2812 10.2188C11.2188 10.4479 12.1875 10.5938 13.1875 10.6562C13.3958 10.6562 13.5625 10.7344 13.6875 10.8906C13.8125 11.0469 13.875 11.1979 13.875 11.3438C13.8125 11.5312 13.7188 11.6875 13.5938 11.8125C13.4688 11.9375 13.3333 12 13.1875 12ZM25.4688 26.9375C25.4062 26.9375 25.3385 26.9323 25.2656 26.9219C25.1927 26.9115 25.125 26.875 25.0625 26.8125C24.6042 26.4792 24.0885 26.1771 23.5156 25.9062C22.9427 25.6354 22.3958 25.3958 21.875 25.1875C20.7292 24.7708 19.5625 24.4479 18.375 24.2188C17.1667 24.0104 15.9531 23.9062 14.7344 23.9062C13.5156 23.9062 12.3021 24.0104 11.0938 24.2188C9.90625 24.4479 8.73958 24.7708 7.59375 25.1875C6.98958 25.3958 6.42188 25.6354 5.89062 25.9062C5.35938 26.1771 4.86458 26.4792 4.40625 26.8125C4.19792 26.9375 3.98438 26.9792 3.76562 26.9375C3.54688 26.8958 3.40625 26.8021 3.34375 26.6562C3.26042 26.5312 3.23438 26.3802 3.26562 26.2031C3.29688 26.026 3.40625 25.8646 3.59375 25.7188C4.13542 25.3854 4.69792 25.0833 5.28125 24.8125C5.86458 24.5417 6.45833 24.2708 7.0625 24C8.27083 23.5625 9.51042 23.2396 10.7812 23.0312C12.0729 22.8021 13.3698 22.6875 14.6719 22.6875C15.974 22.6875 17.2604 22.8021 18.5312 23.0312C19.8229 23.2396 21.0729 23.5625 22.2812 24C22.8646 24.2083 23.4531 24.4635 24.0469 24.7656C24.6406 25.0677 25.1979 25.3854 25.7188 25.7188C25.8646 25.8021 25.9635 25.9479 26.0156 26.1562C26.0677 26.3646 26.0625 26.5312 26 26.6562C25.9375 26.7396 25.849 26.8073 25.7344 26.8594C25.6198 26.9115 25.5312 26.9375 25.4688 26.9375ZM14.6562 32H14.125C13.3542 31.9375 12.6146 31.7292 11.9062 31.375C11.1771 31.0208 10.4896 30.5365 9.84375 29.9219C9.19792 29.3073 8.60417 28.5833 8.0625 27.75C7.54167 26.8958 7.07292 25.9583 6.65625 24.9375C6.19792 23.7917 5.86458 22.5729 5.65625 21.2812C5.44792 19.9896 5.34375 18.6771 5.34375 17.3438C5.34375 16.0104 5.44792 14.6927 5.65625 13.3906C5.86458 12.0885 6.19792 10.8646 6.65625 9.71875C7.03125 8.76042 7.46875 7.88542 7.96875 7.09375C8.44792 6.30208 8.97917 5.60417 9.5625 5C10.1458 4.39583 10.7708 3.89583 11.4375 3.5C12.0833 3.10417 12.7604 2.82292 13.4688 2.65625C13.6771 2.59375 13.8438 2.61979 13.9688 2.73438C14.0938 2.84896 14.1979 3 14.2812 3.1875C14.3438 3.39583 14.3177 3.56771 14.2031 3.70312C14.0885 3.83854 13.9271 3.9375 13.7188 4C12.5312 4.27083 11.4271 4.94792 10.4062 6.03125C9.38542 7.11458 8.54167 8.53125 7.875 10.2812C7.47917 11.3438 7.17708 12.4688 6.96875 13.6562C6.76042 14.8438 6.65625 16.0729 6.65625 17.3438C6.65625 18.5938 6.76042 19.8177 6.96875 21.0156C7.17708 22.2135 7.47917 23.3438 7.875 24.4062C8.54167 26.2604 9.44271 27.7344 10.5781 28.8281C11.7135 29.9219 12.9479 30.5312 14.2812 30.6562H15.0625C16.3333 30.5312 17.5365 29.9219 18.6719 28.8281C19.8073 27.7344 20.7396 26.2604 21.4688 24.4062C21.8021 23.5938 22.0521 22.7552 22.2188 21.8906C22.3854 21.026 22.5312 20.125 22.6562 19.1875C22.6562 19 22.7344 18.8438 22.8906 18.7188C23.0469 18.5938 23.1979 18.5312 23.3438 18.5312C23.5312 18.5312 23.6875 18.6094 23.8125 18.7656C23.9375 18.9219 24 19.0625 24 19.1875C23.9375 20.1875 23.8073 21.151 23.6094 22.0781C23.4115 23.0052 23.1458 23.8646 22.8125 24.6562C22.3958 25.6979 21.9167 26.6354 21.375 27.4688C20.8542 28.3229 20.2708 29.0521 19.625 29.6562C18.9792 30.2604 18.2917 30.7396 17.5625 31.0938C16.8333 31.4479 16.0938 31.6562 15.3438 31.7188C15.1354 31.8646 14.9896 31.9479 14.9062 31.9688C14.8229 31.9896 14.7396 32 14.6562 32ZM14.6562 32C14.4688 32 14.3125 31.9375 14.1875 31.8125C14.0625 31.6875 14 31.5312 14 31.3438V14.4062C14 14.1979 14.0625 14.0312 14.1875 13.9062C14.3125 13.7812 14.4688 13.7188 14.6562 13.7188C14.8646 13.7188 15.0312 13.7812 15.1562 13.9062C15.2812 14.0312 15.3438 14.1979 15.3438 14.4062V31.3438C15.3438 31.5312 15.2812 31.6875 15.1562 31.8125C15.0312 31.9375 14.8646 32 14.6562 32ZM17.5938 18H0.65625C0.46875 18 0.3125 17.9375 0.1875 17.8125C0.0625 17.6875 0 17.5312 0 17.3438C0 17.1354 0.0625 16.9688 0.1875 16.8438C0.3125 16.7188 0.46875 16.6562 0.65625 16.6562H17.5938C17.8021 16.6562 17.9688 16.7188 18.0938 16.8438C18.2188 16.9688 18.2812 17.1354 18.2812 17.3438C18.2812 17.5312 18.2188 17.6875 18.0938 17.8125C17.9688 17.9375 17.8021 18 17.5938 18Z" fill="#1B1D20"/>
</svg>
