<svg width="33" height="32" viewBox="0 0 33 32" fill="none" xmlns="http://www.w3.org/2000/svg">
<path d="M26.6562 22.6562C25.9271 22.6562 25.3021 22.3958 24.7812 21.875C24.2604 21.3542 24 20.7292 24 20C24 19.2708 24.2604 18.6458 24.7812 18.125C25.3021 17.6042 25.9271 17.3438 26.6562 17.3438C27.4062 17.3438 28.0417 17.6042 28.5625 18.125C29.0833 18.6458 29.3438 19.2708 29.3438 20C29.3438 20.7292 29.0833 21.3542 28.5625 21.875C28.0417 22.3958 27.4062 22.6562 26.6562 22.6562ZM26.6562 18.6562C26.2604 18.6562 25.9427 18.7812 25.7031 19.0312C25.4635 19.2812 25.3438 19.6042 25.3438 20C25.3438 20.3958 25.4635 20.7188 25.7031 20.9688C25.9427 21.2188 26.2604 21.3438 26.6562 21.3438C27.0729 21.3438 27.401 21.2188 27.6406 20.9688C27.8802 20.7188 28 20.3958 28 20C28 19.6042 27.8802 19.2812 27.6406 19.0312C27.401 18.7812 27.0729 18.6562 26.6562 18.6562ZM31.3438 29.3438C31.1354 29.3438 30.9688 29.2812 30.8438 29.1562C30.7188 29.0312 30.6562 28.8646 30.6562 28.6562V27.3438C30.6562 26.8021 30.4583 26.3333 30.0625 25.9375C29.6667 25.5417 29.1979 25.3438 28.6562 25.3438H24.6562C24.4688 25.3438 24.3125 25.2812 24.1875 25.1562C24.0625 25.0312 24 24.8646 24 24.6562C24 24.4688 24.0625 24.3125 24.1875 24.1875C24.3125 24.0625 24.4688 24 24.6562 24H28.6562C29.5938 24 30.3854 24.3229 31.0312 24.9688C31.6771 25.6146 32 26.4062 32 27.3438V28.6562C32 28.8646 31.9375 29.0312 31.8125 29.1562C31.6875 29.2812 31.5312 29.3438 31.3438 29.3438ZM5.34375 22.6562C4.59375 22.6562 3.95833 22.3958 3.4375 21.875C2.91667 21.3542 2.65625 20.7292 2.65625 20C2.65625 19.2708 2.91667 18.6458 3.4375 18.125C3.95833 17.6042 4.59375 17.3438 5.34375 17.3438C6.07292 17.3438 6.69792 17.6042 7.21875 18.125C7.73958 18.6458 8 19.2708 8 20C8 20.7292 7.73958 21.3542 7.21875 21.875C6.69792 22.3958 6.07292 22.6562 5.34375 22.6562ZM5.34375 18.6562C4.92708 18.6562 4.59896 18.7812 4.35938 19.0312C4.11979 19.2812 4 19.6042 4 20C4 20.3958 4.11979 20.7188 4.35938 20.9688C4.59896 21.2188 4.92708 21.3438 5.34375 21.3438C5.73958 21.3438 6.05729 21.2188 6.29688 20.9688C6.53646 20.7188 6.65625 20.3958 6.65625 20C6.65625 19.6042 6.53646 19.2812 6.29688 19.0312C6.05729 18.7812 5.73958 18.6562 5.34375 18.6562ZM0.65625 29.3438C0.46875 29.3438 0.3125 29.2812 0.1875 29.1562C0.0625 29.0312 0 28.8646 0 28.6562V27.3438C0 26.4062 0.322917 25.6146 0.96875 24.9688C1.61458 24.3229 2.40625 24 3.34375 24H7.34375C7.53125 24 7.6875 24.0625 7.8125 24.1875C7.9375 24.3125 8 24.4688 8 24.6562C8 24.8646 7.9375 25.0312 7.8125 25.1562C7.6875 25.2812 7.53125 25.3438 7.34375 25.3438H3.34375C2.80208 25.3438 2.33333 25.5417 1.9375 25.9375C1.54167 26.3333 1.34375 26.8021 1.34375 27.3438V28.6562C1.34375 28.8646 1.28125 29.0312 1.15625 29.1562C1.03125 29.2812 0.864583 29.3438 0.65625 29.3438ZM16 23.3438C14.875 23.3438 13.9271 22.9583 13.1562 22.1875C12.3854 21.4167 12 20.4688 12 19.3438C12 18.1979 12.3854 17.2448 13.1562 16.4844C13.9271 15.724 14.875 15.3438 16 15.3438C17.125 15.3438 18.0729 15.724 18.8438 16.4844C19.6146 17.2448 20 18.1979 20 19.3438C20 20.4688 19.6146 21.4167 18.8438 22.1875C18.0729 22.9583 17.125 23.3438 16 23.3438ZM16 16.6562C15.2708 16.6562 14.6458 16.9167 14.125 17.4375C13.6042 17.9583 13.3438 18.5938 13.3438 19.3438C13.3438 20.0729 13.6042 20.6979 14.125 21.2188C14.6458 21.7396 15.2708 22 16 22C16.7292 22 17.3542 21.7396 17.875 21.2188C18.3958 20.6979 18.6562 20.0729 18.6562 19.3438C18.6562 18.5938 18.3958 17.9583 17.875 17.4375C17.3542 16.9167 16.7292 16.6562 16 16.6562ZM22.6562 32C22.4688 32 22.3125 31.9375 22.1875 31.8125C22.0625 31.6875 22 31.5312 22 31.3438V28.6562C22 28.1354 21.8021 27.6719 21.4062 27.2656C21.0104 26.8594 20.5417 26.6562 20 26.6562H12C11.4583 26.6562 10.9896 26.8594 10.5938 27.2656C10.1979 27.6719 10 28.1354 10 28.6562V31.3438C10 31.5312 9.9375 31.6875 9.8125 31.8125C9.6875 31.9375 9.53125 32 9.34375 32C9.13542 32 8.96875 31.9375 8.84375 31.8125C8.71875 31.6875 8.65625 31.5312 8.65625 31.3438V28.6562C8.65625 27.7396 8.97917 26.9583 9.625 26.3125C10.2708 25.6667 11.0625 25.3438 12 25.3438H20C20.9375 25.3438 21.7292 25.6667 22.375 26.3125C23.0208 26.9583 23.3438 27.7396 23.3438 28.6562V31.3438C23.3438 31.5312 23.2812 31.6875 23.1562 31.8125C23.0312 31.9375 22.8646 32 22.6562 32ZM12.2812 13.3438C12.1979 13.3438 12.1302 13.3385 12.0781 13.3281C12.026 13.3177 12 13.2708 12 13.1875C11.875 13.125 11.776 13.0312 11.7031 12.9062C11.6302 12.7812 11.5938 12.6562 11.5938 12.5312L12.2812 8.53125L9.46875 5.71875C9.40625 5.65625 9.36979 5.56771 9.35938 5.45312C9.34896 5.33854 9.34375 5.20833 9.34375 5.0625C9.40625 4.9375 9.47396 4.83854 9.54688 4.76562C9.61979 4.69271 9.72917 4.65625 9.875 4.65625L13.7188 4L15.4688 0.40625C15.4688 0.260416 15.526 0.15625 15.6406 0.09375C15.7552 0.03125 15.875 0 16 0C16.125 0 16.25 0.03125 16.375 0.09375C16.5 0.15625 16.5938 0.260416 16.6562 0.40625L18.2812 4L22 4.53125C22.125 4.53125 22.2292 4.58333 22.3125 4.6875C22.3958 4.79167 22.4688 4.875 22.5312 4.9375C22.5938 5 22.6042 5.10938 22.5625 5.26562C22.5208 5.42188 22.4688 5.53125 22.4062 5.59375L19.5938 8.40625L20.2812 12.4062C20.2812 12.5312 20.2656 12.6562 20.2344 12.7812C20.2031 12.9062 20.125 13 20 13.0625C19.875 13.125 19.75 13.1562 19.625 13.1562C19.5 13.1562 19.4062 13.125 19.3438 13.0625L16 11.3438L12.6562 13.1875C12.5938 13.2708 12.5312 13.3177 12.4688 13.3281C12.4062 13.3385 12.3438 13.3438 12.2812 13.3438ZM11.3438 5.71875L13.4688 7.875C13.5312 7.9375 13.5833 8.02604 13.625 8.14062C13.6667 8.25521 13.6562 8.34375 13.5938 8.40625L13.1875 11.4688L15.7188 10.125C15.8021 10.0625 15.901 10.0312 16.0156 10.0312C16.1302 10.0312 16.2604 10.0625 16.4062 10.125L18.9375 11.4688L18.4062 8.53125C18.4062 8.40625 18.4115 8.30208 18.4219 8.21875C18.4323 8.13542 18.4688 8.0625 18.5312 8L20.6562 5.875L17.875 5.46875C17.7292 5.46875 17.6198 5.4375 17.5469 5.375C17.474 5.3125 17.4062 5.20833 17.3438 5.0625L16.125 2.40625L14.9375 5.0625C14.7917 5.0625 14.6615 5.08854 14.5469 5.14062C14.4323 5.19271 14.3438 5.26042 14.2812 5.34375L11.3438 5.71875ZM23.875 12C23.8125 12 23.7448 11.9948 23.6719 11.9844C23.599 11.974 23.5312 11.9375 23.4688 11.875C23.3438 11.8125 23.2656 11.7188 23.2344 11.5938C23.2031 11.4688 23.1875 11.3333 23.1875 11.1875L23.7188 7.875C23.7188 7.66667 23.8021 7.50521 23.9688 7.39062C24.1354 7.27604 24.3229 7.26042 24.5312 7.34375C24.7396 7.34375 24.8958 7.42708 25 7.59375C25.1042 7.76042 25.125 7.9375 25.0625 8.125L24.8125 10.125L26.5312 9.1875C26.6562 9.125 26.7656 9.09375 26.8594 9.09375C26.9531 9.09375 27.0625 9.125 27.1875 9.1875L28.9375 10.125L28.4062 8C28.4062 7.875 28.4115 7.77083 28.4219 7.6875C28.4323 7.60417 28.4688 7.53125 28.5312 7.46875L30 6L28 5.71875C27.875 5.71875 27.7708 5.6875 27.6875 5.625C27.6042 5.5625 27.5312 5.46875 27.4688 5.34375L26.6562 3.59375L25.875 5.34375C25.8125 5.53125 25.6875 5.65625 25.5 5.71875C25.3125 5.78125 25.125 5.73958 24.9375 5.59375C24.7292 5.53125 24.599 5.41146 24.5469 5.23438C24.4948 5.05729 24.5312 4.86458 24.6562 4.65625L26.125 1.59375C26.125 1.53125 26.1823 1.47396 26.2969 1.42188C26.4115 1.36979 26.5312 1.34375 26.6562 1.34375C26.8021 1.34375 26.9323 1.375 27.0469 1.4375C27.1615 1.5 27.2604 1.59375 27.3438 1.71875L28.6562 4.53125L31.5938 4.9375C31.7396 4.9375 31.849 4.98438 31.9219 5.07812C31.9948 5.17188 32.0625 5.26042 32.125 5.34375C32.1875 5.46875 32.1979 5.59375 32.1562 5.71875C32.1146 5.84375 32.0625 5.9375 32 6L29.875 8.125L30.4062 11.1875C30.4062 11.3333 30.3958 11.4688 30.375 11.5938C30.3542 11.7188 30.2708 11.8125 30.125 11.875C30 11.9375 29.875 11.9688 29.75 11.9688C29.625 11.9688 29.5312 11.9375 29.4688 11.875L26.6562 10.5312L24.125 12H23.875ZM8.125 12C8.125 12 8.09896 11.9948 8.04688 11.9844C7.99479 11.974 7.9375 11.9375 7.875 11.875L5.34375 10.5312L2.8125 11.875C2.66667 11.9375 2.52604 11.9688 2.39062 11.9688C2.25521 11.9688 2.125 11.9375 2 11.875C1.9375 11.8125 1.875 11.7188 1.8125 11.5938C1.75 11.4688 1.71875 11.3333 1.71875 11.1875L2.28125 8.125L0.125 6C0.0625 5.9375 0.0260417 5.84375 0.015625 5.71875C0.00520833 5.59375 0 5.46875 0 5.34375C0.0625 5.19792 0.135417 5.09375 0.21875 5.03125C0.302083 4.96875 0.40625 4.9375 0.53125 4.9375L3.46875 4.53125L4.8125 1.71875C4.8125 1.59375 4.86458 1.5 4.96875 1.4375C5.07292 1.375 5.19792 1.34375 5.34375 1.34375C5.46875 1.34375 5.59375 1.375 5.71875 1.4375C5.84375 1.5 5.9375 1.59375 6 1.71875L7.46875 4.8125C7.53125 4.9375 7.53646 5.08854 7.48438 5.26562C7.43229 5.44271 7.33333 5.59375 7.1875 5.71875C6.9375 5.80208 6.71354 5.80729 6.51562 5.73438C6.31771 5.66146 6.1875 5.53125 6.125 5.34375L5.34375 3.59375L4.53125 5.34375C4.46875 5.46875 4.39583 5.5625 4.3125 5.625C4.22917 5.6875 4.125 5.71875 4 5.71875L2 6L3.46875 7.46875C3.53125 7.53125 3.58333 7.61979 3.625 7.73438C3.66667 7.84896 3.65625 7.9375 3.59375 8L3.34375 10.125L5.0625 9.1875C5.20833 9.125 5.32292 9.09375 5.40625 9.09375C5.48958 9.09375 5.59375 9.125 5.71875 9.1875L7.46875 10.125L6.9375 8C6.9375 7.79167 6.97396 7.625 7.04688 7.5C7.11979 7.375 7.26042 7.27083 7.46875 7.1875C7.67708 7.1875 7.84375 7.22917 7.96875 7.3125C8.09375 7.39583 8.19792 7.53125 8.28125 7.71875L8.8125 11.0625C8.8125 11.2083 8.78125 11.3385 8.71875 11.4531C8.65625 11.5677 8.59375 11.6562 8.53125 11.7188C8.46875 11.8646 8.40104 11.9479 8.32812 11.9688C8.25521 11.9896 8.1875 12 8.125 12Z" fill="#1B1D20"/>
</svg>
