<svg width="35" height="35" viewBox="0 0 35 35" fill="none" xmlns="http://www.w3.org/2000/svg">
<path d="M13.125 30.625C11.3021 30.625 9.5931 30.2832 7.99805 29.5996C6.40299 28.916 5.01302 27.9818 3.82812 26.7969C2.64323 25.612 1.70898 24.222 1.02539 22.627C0.341797 21.0319 0 19.3229 0 17.5C0 15.6771 0.341797 13.9681 1.02539 12.373C1.70898 10.778 2.64323 9.38802 3.82812 8.20312C5.01302 7.01823 6.40299 6.08398 7.99805 5.40039C9.5931 4.7168 11.3021 4.375 13.125 4.375C14.8796 4.375 16.5658 4.69971 18.1836 5.34912C19.8014 5.99854 21.2256 6.93848 22.4561 8.16895C23.0485 8.76139 23.5669 9.38232 24.0112 10.0317C24.4556 10.6812 24.86 11.3704 25.2246 12.0996C25.293 12.3275 25.2987 12.5212 25.2417 12.6807C25.1847 12.8402 25.0879 12.9883 24.9512 13.125C24.7233 13.1934 24.5296 13.1991 24.3701 13.1421C24.2106 13.0851 24.0625 12.9769 23.9258 12.8174C23.6296 12.1794 23.2764 11.5641 22.8662 10.9717C22.4561 10.3792 22.0231 9.83236 21.5674 9.33105C20.3369 8.16895 19.0039 7.29736 17.5684 6.71631C16.1328 6.13525 14.6517 5.84473 13.125 5.84473C11.5299 5.84473 10.0146 6.15234 8.5791 6.76758C7.16634 7.38281 5.93587 8.21452 4.8877 9.2627C3.83952 10.3109 3.00781 11.5413 2.39258 12.9541C1.77734 14.3896 1.46973 15.9049 1.46973 17.5C1.46973 19.0951 1.77734 20.6104 2.39258 22.0459C3.00781 23.4587 3.83952 24.6891 4.8877 25.7373C5.93587 26.7855 7.16634 27.6172 8.5791 28.2324C10.0146 28.8477 11.5299 29.1553 13.125 29.1553C13.3529 29.1553 13.5295 29.2236 13.6548 29.3604C13.7801 29.4971 13.8428 29.6794 13.8428 29.9072C13.8428 30.1123 13.7801 30.2832 13.6548 30.4199C13.5295 30.5566 13.3529 30.625 13.125 30.625ZM12.4072 25.5322C11.3363 25.4183 10.3564 25.1335 9.46777 24.6777C8.5791 24.222 7.81006 23.641 7.16064 22.9346C6.51123 22.2282 6.00423 21.4079 5.63965 20.4736C5.27506 19.5394 5.09277 18.5482 5.09277 17.5C5.09277 16.4062 5.30924 15.3695 5.74219 14.3896C6.17513 13.4326 6.75619 12.5895 7.48535 11.8604C8.21452 11.1312 9.05762 10.5501 10.0146 10.1172C10.9945 9.68424 12.0312 9.46777 13.125 9.46777C14.2188 9.46777 15.2384 9.67855 16.1841 10.1001C17.1297 10.5216 18.0013 11.097 18.7988 11.8262C19.0267 12.0312 19.2489 12.2819 19.4653 12.5781C19.6818 12.8743 19.904 13.2048 20.1318 13.5693C20.2002 13.7061 20.223 13.8713 20.2002 14.0649C20.1774 14.2586 20.0521 14.4352 19.8242 14.5947C19.6875 14.6631 19.5223 14.6859 19.3286 14.6631C19.1349 14.6403 18.9583 14.515 18.7988 14.2871C18.6621 13.9909 18.514 13.7288 18.3545 13.501C18.195 13.2731 18.0127 13.0452 17.8076 12.8174C17.1468 12.2477 16.4176 11.792 15.6201 11.4502C14.8226 11.1084 13.9909 10.9375 13.125 10.9375C11.3021 10.9375 9.7526 11.5755 8.47656 12.8516C7.20052 14.1276 6.5625 15.6771 6.5625 17.5C6.5625 19.1862 7.12077 20.6673 8.2373 21.9434C9.35384 23.2194 10.7894 23.9258 12.5439 24.0625C12.6807 24.0625 12.8117 24.1309 12.937 24.2676C13.0623 24.4043 13.125 24.5752 13.125 24.7803C13.125 25.0081 13.0566 25.1904 12.9199 25.3271C12.7832 25.4639 12.6123 25.5322 12.4072 25.5322ZM13.125 18.2178C13.0566 18.2178 12.9598 18.2121 12.8345 18.2007C12.7091 18.1893 12.6123 18.1494 12.5439 18.0811C12.4072 17.9443 12.3389 17.7791 12.3389 17.5854C12.3389 17.3918 12.4072 17.2152 12.5439 17.0557L22.0117 7.58789C22.1712 7.42838 22.3478 7.34863 22.5415 7.34863C22.7352 7.34863 22.9004 7.42838 23.0371 7.58789C23.1966 7.72461 23.2764 7.88981 23.2764 8.0835C23.2764 8.27718 23.1966 8.45378 23.0371 8.61328L13.5693 18.0811C13.5693 18.1494 13.5124 18.1893 13.3984 18.2007C13.2845 18.2121 13.1934 18.2178 13.125 18.2178ZM26.25 8.75H22.5928C22.3877 8.75 22.2168 8.68164 22.0801 8.54492C21.9434 8.4082 21.875 8.2373 21.875 8.03223V4.375C21.875 4.30664 21.8978 4.2098 21.9434 4.08447C21.9889 3.95915 22.0117 3.8623 22.0117 3.79395L25.6689 0.136719C25.8057 0.0683594 25.9481 0.0284843 26.0962 0.0170898C26.2443 0.00569534 26.3981 0 26.5576 0C26.6943 0.0683594 26.7969 0.170898 26.8652 0.307617C26.9336 0.444336 26.9678 0.581055 26.9678 0.717773V3.65723H29.9072C30.0439 3.65723 30.1807 3.69141 30.3174 3.75977C30.4541 3.82812 30.5566 3.93066 30.625 4.06738C30.625 4.22689 30.6193 4.3807 30.6079 4.52881C30.5965 4.67692 30.5566 4.81934 30.4883 4.95605L26.8311 8.61328C26.7627 8.61328 26.6659 8.63607 26.5405 8.68164C26.4152 8.72721 26.3184 8.75 26.25 8.75ZM23.3447 7.28027H25.9424L28.1299 5.09277H26.25C26.0221 5.09277 25.8455 5.03011 25.7202 4.90479C25.5949 4.77946 25.5322 4.60287 25.5322 4.375V2.49512L23.3447 4.68262V7.28027ZM25.5322 35C24.2106 35 22.9801 34.7493 21.8408 34.248C20.6787 33.7695 19.6704 33.0973 18.8159 32.2314C17.9614 31.3656 17.2835 30.363 16.7822 29.2236C16.2809 28.0615 16.0303 26.8311 16.0303 25.5322C16.0303 24.2106 16.2809 22.9801 16.7822 21.8408C17.2835 20.6787 17.9614 19.6704 18.8159 18.8159C19.6704 17.9614 20.6787 17.2835 21.8408 16.7822C22.9801 16.2809 24.2106 16.0303 25.5322 16.0303C26.8311 16.0303 28.0615 16.2809 29.2236 16.7822C30.363 17.2835 31.3656 17.9614 32.2314 18.8159C33.0973 19.6704 33.7695 20.6787 34.248 21.8408C34.7493 22.9801 35 24.2106 35 25.5322C35 26.8311 34.7493 28.0615 34.248 29.2236C33.7695 30.363 33.0973 31.3656 32.2314 32.2314C31.3656 33.0973 30.363 33.7695 29.2236 34.248C28.0615 34.7493 26.8311 35 25.5322 35ZM25.5322 17.5C24.4385 17.5 23.4017 17.7165 22.4219 18.1494C21.4421 18.5596 20.5876 19.1292 19.8584 19.8584C19.1292 20.5876 18.5596 21.4421 18.1494 22.4219C17.7165 23.4017 17.5 24.4385 17.5 25.5322C17.5 26.626 17.7165 27.6514 18.1494 28.6084C18.5596 29.5882 19.1292 30.4427 19.8584 31.1719C20.5876 31.901 21.4421 32.4821 22.4219 32.915C23.4017 33.3252 24.4385 33.5303 25.5322 33.5303C26.626 33.5303 27.6514 33.3252 28.6084 32.915C29.5882 32.4821 30.4427 31.901 31.1719 31.1719C31.901 30.4427 32.4821 29.5882 32.915 28.6084C33.3252 27.6514 33.5303 26.626 33.5303 25.5322C33.5303 24.4385 33.3252 23.4017 32.915 22.4219C32.4821 21.4421 31.901 20.5876 31.1719 19.8584C30.4427 19.1292 29.5882 18.5596 28.6084 18.1494C27.6514 17.7165 26.626 17.5 25.5322 17.5ZM24.0625 29.1553C23.9941 29.1553 23.8973 29.1325 23.772 29.0869C23.6466 29.0413 23.5498 29.0186 23.4814 29.0186L20.5762 26.1133C20.4167 25.9538 20.3369 25.7772 20.3369 25.5835C20.3369 25.3898 20.4167 25.2246 20.5762 25.0879C20.7129 24.9284 20.8781 24.8486 21.0718 24.8486C21.2655 24.8486 21.4307 24.9284 21.5674 25.0879L23.9258 27.4121L28.4375 22.1826C28.5742 22.0231 28.7394 21.9434 28.9331 21.9434C29.1268 21.9434 29.3034 22.0231 29.4629 22.1826C29.5996 22.3193 29.668 22.4845 29.668 22.6782C29.668 22.8719 29.5996 23.0371 29.4629 23.1738L24.3701 29.0186C24.4385 29.0186 24.4385 29.0413 24.3701 29.0869C24.3018 29.1325 24.1992 29.1553 24.0625 29.1553ZM13.125 20.4053C12.3275 20.4053 11.6439 20.1204 11.0742 19.5508C10.5046 18.9811 10.2197 18.2975 10.2197 17.5C10.2197 16.7025 10.5046 16.0189 11.0742 15.4492C11.6439 14.8796 12.3275 14.5947 13.125 14.5947C13.9225 14.5947 14.6061 14.8796 15.1758 15.4492C15.7454 16.0189 16.0303 16.7025 16.0303 17.5C16.0303 18.2975 15.7454 18.9811 15.1758 19.5508C14.6061 20.1204 13.9225 20.4053 13.125 20.4053ZM13.125 16.0303C12.6921 16.0303 12.3389 16.167 12.0654 16.4404C11.792 16.7139 11.6553 17.0671 11.6553 17.5C11.6553 17.9329 11.792 18.2861 12.0654 18.5596C12.3389 18.833 12.6921 18.9697 13.125 18.9697C13.5579 18.9697 13.9111 18.833 14.1846 18.5596C14.458 18.2861 14.5947 17.9329 14.5947 17.5C14.5947 17.0671 14.458 16.7139 14.1846 16.4404C13.9111 16.167 13.5579 16.0303 13.125 16.0303Z" fill="#1B1D20"/>
</svg>
