<svg xmlns="http://www.w3.org/2000/svg" viewBox="0 0 663 251" width="663" height="251">
<path d="M 288 187 L 287 188 L 287 244 L 288 245 L 291 244 L 307 244 L 308 245 L 308 187 L 307 188 L 289 188 Z" fill="#000000" fill-rule="evenodd"/>
<path d="M 571 189 L 572 190 L 563 198 L 558 210 L 558 224 L 562 234 L 567 240 L 582 246 L 595 246 L 606 242 L 613 236 L 614 237 L 613 235 L 615 232 L 597 225 L 593 229 L 591 228 L 590 230 L 583 229 L 582 228 L 583 227 L 582 228 L 578 223 L 579 221 L 615 221 L 616 222 L 617 221 L 616 206 L 612 198 L 606 192 L 607 191 L 606 192 L 605 190 L 604 191 L 597 187 L 591 187 L 590 186 L 584 186 L 576 188 L 573 190 Z M 595 209 L 596 208 L 597 209 L 596 210 Z M 579 206 L 585 202 L 590 202 L 595 205 L 596 208 L 594 210 L 590 209 L 589 210 L 587 209 L 586 210 L 582 209 L 580 210 Z" fill="#000000" fill-rule="evenodd"/>
<path d="M 537 186 L 529 188 L 517 195 L 512 204 L 510 212 L 510 219 L 511 220 L 511 225 L 514 232 L 521 240 L 530 245 L 546 246 L 554 243 L 554 224 L 548 227 L 540 227 L 536 225 L 537 224 L 535 224 L 533 222 L 531 217 L 533 210 L 538 206 L 548 205 L 555 208 L 554 207 L 554 189 L 549 187 Z" fill="#000000" fill-rule="evenodd"/>
<path d="M 495 188 L 487 186 L 478 187 L 472 191 L 470 190 L 470 188 L 449 188 L 449 245 L 451 244 L 468 244 L 469 245 L 470 244 L 470 211 L 475 205 L 479 205 L 480 206 L 478 208 L 480 206 L 484 210 L 484 244 L 485 245 L 486 244 L 487 245 L 489 244 L 490 245 L 491 244 L 499 244 L 500 245 L 505 244 L 505 208 L 504 207 L 504 200 L 501 193 Z" fill="#000000" fill-rule="evenodd"/>
<path d="M 386 193 L 380 202 L 377 217 L 378 218 L 379 228 L 384 237 L 388 241 L 399 246 L 409 246 L 416 243 L 419 240 L 421 245 L 420 246 L 422 244 L 423 245 L 424 244 L 425 245 L 426 244 L 427 245 L 428 244 L 435 244 L 436 245 L 441 244 L 441 188 L 420 188 L 420 190 L 418 191 L 411 187 L 401 186 L 389 190 Z M 412 206 L 413 205 L 414 206 L 413 207 Z M 406 205 L 411 205 L 413 207 L 415 206 L 419 210 L 421 215 L 420 221 L 419 222 L 418 221 L 419 222 L 415 226 L 414 225 L 413 227 L 403 226 L 398 219 L 399 211 Z" fill="#000000" fill-rule="evenodd"/>
<path d="M 362 187 L 360 188 L 350 186 L 343 188 L 339 191 L 337 188 L 334 187 L 333 188 L 316 188 L 316 244 L 317 245 L 318 244 L 319 245 L 320 244 L 323 245 L 324 244 L 331 244 L 332 245 L 337 244 L 337 212 L 338 209 L 343 205 L 347 206 L 351 210 L 351 244 L 352 245 L 355 244 L 371 244 L 372 245 L 372 204 L 369 195 Z M 337 191 L 338 190 L 339 191 L 338 192 Z" fill="#000000" fill-rule="evenodd"/>
<path d="M 279 161 L 274 161 L 273 160 L 271 161 L 270 160 L 256 163 L 250 169 L 249 172 L 247 173 L 248 174 L 246 178 L 246 186 L 244 188 L 238 188 L 238 205 L 244 205 L 246 207 L 245 208 L 246 209 L 246 242 L 245 243 L 246 245 L 247 244 L 251 245 L 252 244 L 259 244 L 260 245 L 264 244 L 266 245 L 266 206 L 267 205 L 280 205 L 281 204 L 280 203 L 280 188 L 267 188 L 266 185 L 267 182 L 272 178 L 281 179 L 281 164 L 282 163 Z" fill="#000000" fill-rule="evenodd"/>
<path d="M 295 159 L 290 162 L 287 167 L 285 168 L 286 169 L 286 175 L 289 180 L 292 182 L 300 183 L 308 177 L 309 168 L 303 161 Z" fill="#000000" fill-rule="evenodd"/>
<path d="M 584 106 L 575 109 L 567 117 L 564 123 L 564 136 L 566 140 L 565 141 L 567 142 L 570 147 L 577 151 L 576 152 L 578 151 L 583 153 L 590 153 L 599 150 L 607 142 L 609 138 L 610 139 L 609 138 L 610 123 L 605 113 L 595 107 Z" fill="#000000" fill-rule="evenodd"/>
<path d="M 5 51 L 7 59 L 9 62 L 8 64 L 9 63 L 11 66 L 16 80 L 30 111 L 29 113 L 30 112 L 31 113 L 34 123 L 42 140 L 41 142 L 42 141 L 47 151 L 45 157 L 42 161 L 43 162 L 39 171 L 38 172 L 37 171 L 38 174 L 32 188 L 69 188 L 77 171 L 86 147 L 89 144 L 88 142 L 93 132 L 102 108 L 126 52 L 125 51 L 89 51 L 79 74 L 68 104 L 65 107 L 49 68 L 50 65 L 49 66 L 48 65 L 46 58 L 42 51 L 7 51 L 6 52 Z" fill="#000000" fill-rule="evenodd"/>
<path d="M 493 50 L 484 53 L 472 60 L 466 65 L 459 75 L 453 93 L 454 115 L 460 129 L 466 138 L 475 145 L 481 148 L 480 149 L 481 148 L 490 152 L 502 153 L 503 154 L 522 152 L 534 147 L 539 143 L 542 144 L 541 142 L 552 131 L 551 130 L 555 124 L 559 111 L 558 87 L 553 76 L 554 75 L 552 74 L 549 69 L 550 68 L 549 69 L 539 59 L 533 55 L 531 55 L 530 54 L 531 53 L 529 54 L 526 52 L 514 49 Z M 505 81 L 515 83 L 520 87 L 519 88 L 520 87 L 526 98 L 526 105 L 524 110 L 519 117 L 518 116 L 517 118 L 511 121 L 501 121 L 495 118 L 489 111 L 490 110 L 489 111 L 488 110 L 486 102 L 487 95 L 490 90 L 494 86 L 495 87 L 494 86 L 496 84 Z" fill="#000000" fill-rule="evenodd"/>
<path d="M 357 59 L 359 61 L 353 66 L 347 75 L 346 74 L 347 76 L 342 87 L 341 100 L 340 101 L 341 103 L 341 112 L 343 119 L 347 128 L 355 139 L 370 149 L 382 153 L 390 153 L 391 154 L 410 152 L 422 146 L 424 147 L 423 146 L 428 142 L 429 143 L 428 142 L 437 133 L 438 134 L 437 133 L 443 123 L 447 110 L 446 88 L 442 77 L 437 69 L 424 57 L 416 53 L 401 49 L 381 50 L 372 53 L 359 61 Z M 388 82 L 400 82 L 406 87 L 407 86 L 413 96 L 412 110 L 405 118 L 399 121 L 389 121 L 384 119 L 378 113 L 374 105 L 374 98 L 376 92 L 382 85 L 384 86 L 383 87 L 384 86 L 383 85 Z" fill="#000000" fill-rule="evenodd"/>
<path d="M 140 55 L 141 56 L 130 65 L 122 79 L 121 77 L 122 81 L 120 85 L 118 95 L 118 108 L 121 122 L 131 139 L 138 145 L 146 149 L 147 151 L 148 150 L 155 153 L 175 153 L 185 149 L 191 144 L 193 151 L 226 151 L 227 150 L 226 149 L 227 148 L 226 147 L 226 57 L 227 56 L 226 53 L 227 52 L 226 51 L 193 51 L 191 59 L 182 52 L 172 49 L 159 49 L 151 51 L 142 56 Z M 169 81 L 176 81 L 184 84 L 191 92 L 190 94 L 191 93 L 193 97 L 193 106 L 188 115 L 185 118 L 183 117 L 184 118 L 175 122 L 166 121 L 160 117 L 161 116 L 160 117 L 153 108 L 154 106 L 152 103 L 153 95 L 157 88 L 163 83 Z" fill="#000000" fill-rule="evenodd"/>
<path d="M 238 7 L 238 149 L 237 150 L 238 151 L 273 151 L 273 95 L 276 87 L 278 85 L 279 86 L 278 85 L 280 83 L 290 82 L 296 87 L 298 92 L 298 151 L 333 151 L 333 78 L 330 68 L 325 61 L 325 59 L 315 52 L 305 49 L 289 50 L 280 54 L 274 59 L 273 58 L 273 7 Z" fill="#000000" fill-rule="evenodd"/>
<path d="M 656 6 L 655 7 L 614 7 L 610 17 L 606 24 L 605 29 L 602 33 L 603 34 L 600 39 L 599 38 L 600 41 L 597 46 L 591 63 L 576 98 L 618 98 L 626 78 L 629 74 L 628 73 L 633 63 L 635 56 L 637 53 L 638 54 L 637 53 L 638 49 Z" fill="#000000" fill-rule="evenodd"/>
</svg>
